<svg width="16" height="16" viewBox="0 0 16 16" fill="none" xmlns="http://www.w3.org/2000/svg">
<path d="M10.2881 6.83301C10.0154 6.82293 9.74463 6.88737 9.50586 7.01953C9.26722 7.15169 9.06883 7.34666 8.93262 7.58301L8.92871 7.58887C9.13495 7.49329 9.36032 7.44113 9.58984 7.43945H9.59277C10.094 7.43945 10.5126 7.63173 10.7822 8.01758C11.0296 8.37158 11.1064 8.82577 11.1064 9.27344V11.9932H12.1064V9.04004C12.1064 8.20051 11.8873 7.65909 11.5879 7.33203C11.2929 7.00998 10.8631 6.83306 10.3066 6.83301H10.2881ZM3.89258 11.9932H4.89258V6.99316H3.89258V11.9932ZM7 11.9863H8V6.98633H7V11.9863ZM4.44922 4.07031L4.4209 4.07324H4.39258C4.24953 4.07337 4.1119 4.13029 4.01074 4.23145C3.90968 4.33268 3.85352 4.47022 3.85352 4.61328C3.85356 4.75637 3.90961 4.8939 4.01074 4.99512C4.1119 5.09628 4.24953 5.1532 4.39258 5.15332H4.4209L4.44922 5.15625C4.52572 5.16493 4.60339 5.15713 4.67676 5.13379C4.75008 5.11045 4.8176 5.07176 4.875 5.02051C4.93225 4.96935 4.97833 4.90696 5.00977 4.83691C5.0412 4.7667 5.05759 4.69021 5.05762 4.61328C5.05762 4.53629 5.04122 4.45992 5.00977 4.38965C4.97831 4.31943 4.93239 4.25633 4.875 4.20508C4.81762 4.15389 4.75004 4.11511 4.67676 4.0918C4.60341 4.06847 4.52569 4.06164 4.44922 4.07031ZM14.126 12.7197C14.1233 12.9122 14.0829 13.1024 14.0068 13.2793C13.9307 13.4562 13.8206 13.6167 13.6826 13.751C13.5445 13.8853 13.3811 13.9913 13.2021 14.0625C13.0254 14.1329 12.8367 14.1668 12.6465 14.165V14.166H3.35352V14.165C3.16309 14.1668 2.97384 14.133 2.79688 14.0625C2.61807 13.9913 2.45536 13.8852 2.31738 13.751C2.17931 13.6167 2.06834 13.4562 1.99219 13.2793C1.91615 13.1025 1.87568 12.9122 1.87305 12.7197V3.2793L1.88184 3.13574C1.89792 2.99269 1.93507 2.85244 1.99219 2.71973C2.06834 2.54279 2.17931 2.38236 2.31738 2.24805C2.45527 2.11402 2.61824 2.00868 2.79688 1.9375C2.97384 1.86705 3.16309 1.83218 3.35352 1.83398V1.83301H12.6465V1.83398C12.8367 1.83226 13.0254 1.86712 13.2021 1.9375C13.381 2.00873 13.5446 2.11379 13.6826 2.24805C13.8207 2.38233 13.9307 2.54285 14.0068 2.71973C14.083 2.89657 14.1233 3.08679 14.126 3.2793V12.7197Z" stroke="white"/>
</svg>
