<svg width="16" height="16" viewBox="0 0 16 16" fill="none" xmlns="http://www.w3.org/2000/svg">
<path d="M13.0529 2.88906C11.8371 1.67031 10.2179 1 8.4971 1C4.94531 1 2.05513 3.89018 2.05513 7.44196C2.05513 8.57656 2.35112 9.68504 2.91406 10.6629L2 14L5.4154 13.1033C6.35558 13.617 7.41473 13.8868 8.4942 13.8868H8.4971C12.046 13.8868 15 10.9967 15 7.44487C15 5.72411 14.2687 4.10781 13.0529 2.88906ZM8.4971 12.8016C7.53371 12.8016 6.59062 12.5433 5.76942 12.0558L5.575 11.9397L3.54955 12.4708L4.08929 10.4946L3.96161 10.2915C3.42478 9.43839 3.1433 8.45469 3.1433 7.44196C3.1433 4.49085 5.54598 2.08817 8.5 2.08817C9.93058 2.08817 11.2741 2.64531 12.2839 3.65804C13.2937 4.67076 13.9147 6.01429 13.9118 7.44487C13.9118 10.3989 11.4482 12.8016 8.4971 12.8016ZM11.4337 8.79129C11.2741 8.71004 10.4819 8.32121 10.3339 8.26897C10.1859 8.21384 10.0786 8.18772 9.97121 8.35022C9.86384 8.51272 9.55625 8.87254 9.46049 8.98281C9.36763 9.09018 9.27187 9.10469 9.11228 9.02344C8.16629 8.55045 7.54531 8.17902 6.92143 7.10826C6.75603 6.82388 7.08683 6.8442 7.39442 6.22902C7.44665 6.12165 7.42054 6.02879 7.37991 5.94754C7.33929 5.86629 7.01719 5.07411 6.88371 4.75201C6.75313 4.43862 6.61964 4.48214 6.52098 4.47634C6.42812 4.47054 6.32076 4.47054 6.21339 4.47054C6.10603 4.47054 5.93192 4.51116 5.78393 4.67076C5.63594 4.83326 5.22098 5.2221 5.22098 6.01429C5.22098 6.80647 5.79844 7.57255 5.87679 7.67991C5.95804 7.78728 7.01138 9.41228 8.62768 10.1116C9.64911 10.5527 10.0496 10.5904 10.5603 10.515C10.8708 10.4685 11.5121 10.1261 11.6455 9.74888C11.779 9.37165 11.779 9.04955 11.7384 8.98281C11.7007 8.91027 11.5933 8.86964 11.4337 8.79129Z" fill="black"/>
</svg>
