<?xml version="1.0" encoding="UTF-8"?>
<svg width="203px" height="33px" viewBox="0 0 203 33" version="1.1" xmlns="http://www.w3.org/2000/svg" xmlns:xlink="http://www.w3.org/1999/xlink">
    <title>Group</title>
    <g id="Page-1" stroke="none" stroke-width="1" fill="none" fill-rule="evenodd">
        <g id="leave_7-copy" transform="translate(-1361, -459)" fill="#162169" fill-rule="nonzero">
            <g id="Group" transform="translate(1361.3523, 459.4844)">
                <path d="M195.046711,7.47879627 L195.991238,7.72853578 L201.752957,9.25197328 L202.43356,9.43192923 L202.493682,10.1333489 C202.533553,10.5985136 202.56678,11.0636942 202.593362,11.5288877 C202.620489,12.0036064 202.634054,12.4783598 202.634054,12.953125 L202.627042,13.0713379 C202.492161,14.2043375 202.293084,15.3144419 202.029774,16.4014429 C201.764146,17.498009 201.420024,18.5644452 200.997488,19.6003401 C200.571614,20.6444191 200.053172,21.6504024 199.442576,22.6177517 C198.827511,23.5921793 198.106384,24.5134277 197.279284,25.381882 C196.409248,26.2933485 195.430169,27.1172918 194.343223,27.8533878 C193.272545,28.5784675 192.103148,29.2442804 190.829382,29.8540375 C189.915789,30.2839634 188.959674,30.6798285 187.961111,31.0417238 C186.964184,31.4030262 185.899294,31.7368477 184.766342,32.043411 L183.84243,32.293411 L183.552222,31.3813287 L182.59519,28.3735162 L182.285456,27.4000666 L183.265284,27.111143 C184.267746,26.8155454 185.299831,26.4875931 186.361493,26.1272712 C186.986161,25.915263 187.617137,25.6780159 188.254409,25.4154917 L188.680116,25.2353125 L187.972538,23.3897466 L186.938373,20.6588667 C186.255742,18.8450174 185.563353,17.0279045 184.862205,15.2101025 C184.689171,14.7651568 184.539934,14.4149065 184.417127,14.1634447 C184.32901,13.9830161 184.214709,13.8229936 184.091961,13.6996694 C183.93073,13.5473958 183.700773,13.3908288 183.401193,13.2358739 C183.036484,13.047231 182.52603,12.7983849 181.872319,12.4907562 L180.945701,12.0547005 L181.403689,11.1387239 C181.641349,10.6634037 181.885582,10.1881387 182.136388,9.71292888 C182.387135,9.23782916 182.644451,8.76278446 182.908334,8.28779457 L183.336085,7.51784216 L184.153882,7.84496081 C184.885054,8.13742962 185.512541,8.40444544 186.037487,8.64672812 C186.613071,8.91238215 187.115831,9.21253787 187.508261,9.52220403 C187.963615,9.84745695 188.349837,10.2336789 188.662798,10.6784128 C188.958046,11.0979763 189.226934,11.6133447 189.481462,12.2425834 C189.579118,12.4964897 189.579118,12.4964897 189.676774,12.7503959 C189.709452,12.8353594 189.731238,12.8920017 189.749365,12.9391307 L189.800001,13.0707858 C189.818044,13.1176961 189.839661,13.173901 189.872087,13.2582084 C190.003357,13.5995099 190.147569,13.9797056 190.304758,14.3988766 C190.462504,14.8195319 190.639634,15.3017209 190.836226,15.845624 C191.031734,16.3865315 191.263029,17.0282935 191.530124,17.7709478 C191.797731,18.5150262 192.104336,19.376128 192.449975,20.3543511 C192.665189,20.9634468 192.904586,21.6361958 193.168157,22.3725692 L193.181116,22.4093125 L193.366285,22.2282851 C193.553731,22.0365784 193.732058,21.8385222 193.901325,21.6340885 L194.148438,21.3226511 C194.721092,20.5691597 195.213439,19.7385127 195.621082,18.8394489 C196.027006,17.9168946 196.360087,16.9269047 196.619948,15.8688971 C196.795111,15.155735 196.942803,14.4031181 197.062861,13.611084 L197.114116,13.2403125 L194.652669,12.5703642 L193.695872,12.309934 L193.948229,11.3509755 C194.080354,10.8489004 194.215832,10.3565535 194.354669,9.87393121 C194.491542,9.39813224 194.63167,8.91257353 194.775052,8.41725442 L195.046711,7.47879627 Z" id="Path"></path>
                <path d="M164.400619,7.2771447 L165.328175,7.56424536 C165.849677,7.72566255 166.304734,7.8486511 166.6915,7.93325623 C167.075754,8.01731174 167.449427,8.08008868 167.812513,8.1217543 C168.181051,8.16404554 168.569686,8.1913715 168.978344,8.20357024 C169.403779,8.21626978 169.905117,8.22265625 170.48171,8.22265625 L171.653585,8.22265625 C172.533089,8.22265625 173.402302,8.33446369 174.259191,8.55768705 C175.177001,8.79678035 176.009259,9.22645771 176.746894,9.84115372 C177.4914,10.4615751 178.097078,11.2843826 178.566817,12.298423 C179.036837,13.3130703 179.300455,14.5697696 179.370903,16.0636928 C179.410597,16.8046474 179.437063,17.542387 179.450298,18.2769068 C179.463325,18.9999248 179.476352,19.7457233 179.489379,20.5143033 C179.502498,21.2883236 179.509054,22.1012512 179.509054,22.953125 L179.509054,25.6484375 C179.509054,25.9772398 179.502155,26.2773389 179.48821,26.5492616 C179.473701,26.8321881 179.444973,27.1302386 179.402228,27.443707 C179.359884,27.7542228 179.300606,28.0924562 179.224516,28.4590758 C179.150812,28.8141917 179.05444,29.2428841 178.935259,29.7460914 L178.753001,30.515625 L162.059835,30.515625 L162.059835,25.546875 L174.186835,25.5465312 L174.18251,24.604582 C174.178356,23.9482827 174.172124,23.2831153 174.163816,22.6090809 L174.149794,21.5913792 C174.123871,19.8869469 174.078509,18.1988243 174.013463,16.5200113 C173.989293,15.758657 173.921112,15.1361293 173.81299,14.6581172 C173.723472,14.2623538 173.587724,13.9714643 173.415959,13.7723739 C173.26315,13.5952538 173.038437,13.4596833 172.716754,13.3677739 C172.31581,13.2532185 171.75669,13.1914062 171.048116,13.1914062 L169.241079,13.1906103 C168.794134,13.1884873 168.384418,13.1821149 168.011744,13.1714671 C167.525229,13.1575667 167.054575,13.1227034 166.599789,13.0667298 C166.133272,13.0093122 165.664351,12.9198236 165.193213,12.7984699 C164.724302,12.6776896 164.219426,12.5129037 163.677418,12.3044394 L162.763136,11.9527924 L163.095843,11.0314493 C163.263719,10.5665641 163.428361,10.1016918 163.589771,9.63683206 C163.752024,9.16954164 163.917543,8.68921118 164.086327,8.19584357 L164.400619,7.2771447 Z" id="Path"></path>
                <path d="M139.180129,7.5129169 L139.588751,8.28714763 C139.85554,8.79264314 140.078249,9.28401632 140.256503,9.76173761 C140.437824,10.2476781 140.585316,10.7692964 140.699594,11.3263996 C140.811079,11.8698879 140.900597,12.4827424 140.968935,13.1661213 C141.035027,13.8270452 141.100874,14.6106298 141.166399,15.5149208 L141.479679,19.6959062 L143.513211,15.164174 C143.828334,14.4551461 144.08614,13.8560636 144.286244,13.3680616 L144.368469,13.1657221 C144.566295,12.6741538 144.710871,12.237475 144.802596,11.8591095 C144.874701,11.5603915 144.911397,11.2353643 144.911397,10.8828125 C144.911397,10.5282081 144.875689,10.0759067 144.802982,9.53060122 L144.679122,8.60165118 L145.598094,8.41785682 L148.723094,7.79285682 L149.622414,7.61299287 L149.87921,8.4934375 C150.08763,9.20802176 150.192647,9.92063774 150.192647,10.6289062 C150.192647,11.0573605 150.159474,11.4886156 150.093321,11.9222824 C150.02918,12.3427631 149.94031,12.7657855 149.82358,13.2032237 C149.631241,13.8901482 149.397916,14.5729685 149.123733,15.251571 C148.858301,15.9085143 148.573152,16.5749678 148.266306,17.2553381 L146.098337,22.0014319 L145.688889,22.8977908 L144.786625,22.501526 L141.896,21.2319947 L141.585679,21.0949062 L141.920679,25.5599062 L142.337179,25.5664062 C144.427047,25.5664062 146.232891,25.2502315 147.759043,24.6253504 C149.275338,24.0045054 150.52299,23.1412012 151.513398,22.0328878 C152.511811,20.9156151 153.259556,19.5839748 153.757929,18.0288084 C154.265567,16.4447338 154.520772,14.6951956 154.520772,12.7773437 C154.520772,12.2410961 154.50208,11.7114725 154.46472,11.1884345 C154.426721,10.6564435 154.376026,10.1178098 154.312621,9.57253211 L154.212295,8.70973072 L155.052569,8.48965903 C155.615978,8.3420997 156.173127,8.21120321 156.724022,8.09699323 C157.275791,7.9826021 157.859678,7.87857615 158.475799,7.78481866 L159.432389,7.63925063 L159.609371,8.59052958 C159.719548,9.18273052 159.802003,9.79427045 159.856857,10.4250891 C159.911497,11.0534519 159.938741,11.707312 159.938741,12.3867187 C159.938741,15.3485821 159.530342,17.9691443 158.707319,20.2461729 C157.8765,22.544772 156.670092,24.4764199 155.088725,26.029798 C153.509188,27.5813793 151.590541,28.746521 149.343576,29.5232497 C147.124226,30.2904323 144.638037,30.671875 141.88796,30.671875 C141.233319,30.671875 140.56905,30.6551848 139.895156,30.6218238 C139.209959,30.5879031 138.508968,30.5235609 137.792178,30.4288905 L136.989986,30.3229406 L136.926226,29.5162983 L136.086799,18.8964135 C135.98186,17.6502604 135.906303,16.60232 135.860132,15.7514495 C135.81554,14.9296805 135.758436,14.2095315 135.689122,13.5920132 C135.622588,12.9992546 135.526703,12.4628968 135.402385,11.983384 C135.279405,11.509033 135.098072,10.9947603 134.857609,10.4416949 L134.500143,9.61952378 L135.27854,9.17472561 C135.770849,8.89340588 136.286906,8.64064357 136.826462,8.41641241 C137.340257,8.20288718 137.850988,8.00260033 138.358661,7.81556313 L139.180129,7.5129169 Z" id="Path"></path>
                <path d="M131.344991,8.22265625 L131.344586,15.8486379 C131.342966,16.4300531 131.336481,16.925719 131.325074,17.3363608 C131.311415,17.8281107 131.283934,18.2815412 131.242372,18.69716 C131.20079,19.1129793 131.145199,19.5160137 131.075512,19.9062594 C131.007043,20.2896873 130.918726,20.7108913 130.810596,21.1704456 L130.600079,22.0651436 L129.690842,21.9306411 L126.390061,21.4423599 L125.382571,21.2933229 L125.550003,20.288726 C125.614766,19.9001483 125.673014,19.5441934 125.724738,19.2209157 C125.774011,18.9129624 125.817323,18.5850231 125.854588,18.2372169 C125.891246,17.8950814 125.919042,17.5059256 125.937705,17.0704634 C125.956567,16.6303536 125.966085,16.0973499 125.966085,15.4726563 L125.965429,13.1906563 L121.493429,13.1914063 L121.493429,8.22265625 L131.344991,8.22265625 Z" id="Path"></path>
                <polygon id="Path" points="117.848897 8.22265625 117.848897 30.515625 112.469991 30.515625 112.469022 13.1906562 109.052022 13.1914062 109.052022 8.22265625"></polygon>
                <path d="M77.7599938,7.2771447 L78.6875498,7.56424536 C79.2090515,7.72566255 79.6641092,7.8486511 80.0508755,7.93325623 C80.4351292,8.01731174 80.8088015,8.08008868 81.1718876,8.1217543 C81.5404255,8.16404554 81.9290614,8.1913715 82.3377192,8.20357024 C82.7631539,8.21626978 83.2644918,8.22265625 83.8410849,8.22265625 L84.4074911,8.22265625 C85.302959,8.22265625 86.1852925,8.32227455 87.0530585,8.52143396 C87.9930689,8.73717404 88.8455725,9.14792579 89.5985065,9.74720418 C90.3560599,10.3469339 90.9603731,11.1604325 91.4139257,12.1733665 C91.8686931,13.1890137 92.0871786,14.4635126 92.0871786,16 L92.0868349,25.5465312 L95.6809286,25.546875 L95.6809286,30.515625 L75.1848349,30.515625 L75.1848349,25.546875 L86.7078349,25.5465312 L86.7082724,16.4882812 C86.7082724,15.8518306 86.6694851,15.3105457 86.5946154,14.8676625 L86.5541862,14.6544361 C86.4707426,14.2603966 86.3382402,13.9743598 86.1674189,13.7807623 C86.0080607,13.6001563 85.77515,13.4619248 85.4446247,13.3686997 C85.0352363,13.2532312 84.4788121,13.1914062 83.7824911,13.1914062 L82.6004544,13.1906103 C82.1535086,13.1884873 81.7437934,13.1821149 81.3711188,13.1714671 C80.8846042,13.1575667 80.4139495,13.1227034 79.959164,13.0667298 C79.4926466,13.0093122 79.0237261,12.9198236 78.5525881,12.7984699 C78.0836766,12.6776896 77.5788005,12.5129037 77.0367933,12.3044394 L76.1225112,11.9527924 L76.4552185,11.0314493 C76.6230936,10.5665641 76.7877359,10.1016918 76.9491456,9.63683206 C77.1113992,9.16954164 77.2769185,8.68921118 77.4457021,8.19584357 L77.7599938,7.2771447 Z" id="Path"></path>
                <path d="M57.8986517,7.37370422 L58.1882057,8.24236598 C58.2430279,8.40683278 58.2945209,8.56817736 58.3426806,8.72641651 C58.3856667,8.86765652 58.43183,9.01230153 58.4869711,9.17828751 C58.6102246,9.57269875 58.749022,9.96750022 58.9034016,10.362712 C59.0517323,10.7424387 59.2477682,11.1646699 59.4916281,11.6280036 C59.7352696,12.0909224 60.0469567,12.6093723 60.4264794,13.1817671 C60.8066608,13.7551555 61.2882672,14.4098883 61.8826103,15.1595818 C62.0764593,15.4140086 62.2660126,15.6456849 62.4510012,15.8545429 C62.6542746,16.0840451 62.8932013,16.3557016 63.1678803,16.6696204 C63.4323386,16.9718584 63.7727117,17.3440421 64.1881157,17.7850094 C64.4663246,18.0803389 64.7770955,18.4343478 65.1206,18.8468896 L65.2034599,18.9465937 L65.2872877,18.859884 L65.4403997,18.6793865 C65.6956477,18.3575521 65.9147598,18.0108558 66.0982927,17.6382283 C66.2915147,17.245929 66.4624164,16.8216213 66.6106632,16.3650214 C66.7705887,15.8724506 66.9339905,15.3437977 67.0973852,14.7910398 C67.2392454,14.2880807 67.3778902,13.7818661 67.513319,13.2723957 L67.6434599,12.7765937 L65.8402365,12.431321 L64.8571143,12.2427771 L65.0466786,11.2598511 L65.5740223,8.52547611 L65.7601471,7.56038496 L66.7283089,7.72981328 L72.1970589,8.68684453 L72.9926464,8.82607234 L73.0239283,9.63314439 L73.1215845,12.1526756 L73.1263359,12.2752614 L73.1013153,12.3953605 C72.9662285,13.0437769 72.791535,13.74927 72.5773107,14.5124439 C72.3685738,15.2560694 72.1728424,15.9476535 71.9901088,16.5872211 C71.7483914,17.4332319 71.5086499,18.1693397 71.2698741,18.7969791 C71.0221429,19.448158 70.7402633,20.040462 70.423277,20.5735754 C70.0981922,21.1203089 69.7108042,21.6294474 69.2622194,22.1000938 C69.0437128,22.3293466 68.801519,22.5601859 68.5355931,22.7929163 L68.4894599,22.8315937 L72.4934485,27.5396155 L73.1286303,28.2864193 L72.3945485,28.9362622 L70.011736,31.0456372 L69.2545464,31.7159363 L68.5927637,30.9512922 L59.0824599,19.9625937 L59.0737606,19.9873733 L58.9909671,20.2433682 C58.8186765,20.8374737 58.696327,21.4671263 58.6243544,22.1328725 C58.5501521,22.8192435 58.5129599,23.5320954 58.5129599,24.2714844 C58.5129599,25.0519346 58.5064005,25.8226541 58.4929407,26.597641 C58.4802589,27.0034586 58.4738974,27.4455847 58.4738974,27.9238281 C58.4738974,28.4190156 58.4673196,29.0143065 58.4541882,29.7102708 L58.4356762,30.6914062 L53.0754599,30.6914062 L53.0754599,29.6914062 C53.0754599,29.3218719 53.0787507,28.9006495 53.0853219,28.4275187 C53.0918235,27.9594053 53.098326,27.4554583 53.1048293,26.9156871 C53.1113832,26.3717105 53.1212112,25.8115148 53.1343118,25.2350911 C53.1439316,24.8118168 53.1439316,24.8118168 53.1535515,24.3885426 L53.1538433,24.375703 C53.1636088,23.946022 53.1636088,23.946022 53.1734715,23.5124053 C53.2005756,22.4960003 53.2755948,21.5855405 53.3995882,20.7795834 C53.5259674,19.9581184 53.7100391,19.2041324 53.9531451,18.5177154 C54.1982481,17.8256598 54.5060688,17.181047 54.8766907,16.5851453 C55.0935084,16.2365364 55.3336949,15.8916348 55.5971195,15.5503866 L55.6554599,15.4745937 L55.642279,15.4541188 C55.4306875,15.1383548 55.2361855,14.8368612 55.0587348,14.5495073 L54.8869665,14.2668617 C54.5480258,13.6996549 54.2720167,13.1755868 54.0644229,12.7048223 C53.8378577,12.2092109 53.6463883,11.7057173 53.490202,11.1945623 C53.3428456,10.7123048 53.2151727,10.2620897 53.1071825,9.84362802 L52.895616,9.02380753 L53.6693214,8.67993845 C54.1717156,8.45665214 54.7128839,8.2519795 55.2928882,8.06554956 C55.8641515,7.8819292 56.4358355,7.72199381 57.0079018,7.58578754 L57.8986517,7.37370422 Z" id="Path"></path>
                <polygon id="Path" points="49.1184286 21.2890625 49.1184286 30.515625 43.7395224 30.515625 43.7395224 21.2890625"></polygon>
                <path d="M49.5481161,8.203125 L49.5477112,13.2509817 C49.5460911,13.8323968 49.539606,14.3280628 49.5281993,14.7387046 C49.5145396,15.2304545 49.4870589,15.683885 49.445497,16.0995037 C49.4039151,16.5153231 49.3483242,16.9183574 49.2786374,17.3086031 C49.2101682,17.6920311 49.1218512,18.113235 49.0137208,18.5727893 L48.8032036,19.4674873 L47.8939671,19.3329849 L44.5931858,18.8447036 L43.5856956,18.6956666 L43.7531284,17.6910698 C43.8178914,17.302492 43.8761385,16.9465371 43.927863,16.6232595 C43.9771355,16.3153061 44.0204483,15.9873668 44.0577132,15.6395606 C44.0943706,15.2974251 44.1221674,14.9082693 44.1408301,14.4728072 C44.1565483,14.106049 44.1657777,13.6747812 44.1684175,13.1797004 L39.6965536,13.171875 L39.6965536,8.203125 L49.5481161,8.203125 Z" id="Path"></path>
                <path d="M13.6047944,7.27355004 L14.5322159,7.56575133 C15.4250342,7.84705025 16.2130419,8.02518226 16.892866,8.10203195 C17.5993521,8.18189559 18.5305764,8.22265625 19.6809286,8.22265625 L29.4270224,8.22265625 C31.5888073,8.22265625 33.3350726,8.72052763 34.6362768,9.74618291 C36.3224656,11.0765704 37.1457724,13.1914867 37.1457724,16 L37.1457724,30.515625 L24.5403036,30.515625 L24.5403036,25.546875 L31.7662724,25.5465312 L31.7668661,16.4882812 C31.7668661,15.5556322 31.6867285,14.8415303 31.5412286,14.3612709 L31.4956326,14.2242237 C31.3642144,13.8647565 31.157822,13.6360049 30.8412291,13.4887524 C30.4350368,13.2998257 29.7628361,13.1914062 28.8410849,13.1914062 L21.0122724,13.1905312 L20.9371267,13.3105884 C19.9900955,14.8677465 19.5090536,16.8646554 19.5090536,19.3203125 C19.5090536,21.3697894 19.7873905,23.2810358 20.3435456,25.0607554 L20.9880768,27.1505992 L21.044601,27.3338746 L21.0293064,27.5250577 L20.9904831,28.0102902 C20.9362029,28.715933 20.8744386,29.2718111 20.8031075,29.6855319 L20.659988,30.515625 L11.0832724,30.515625 L11.0832724,29.515625 L11.0832724,25.6054687 L15.0032724,25.6045312 L14.9302269,25.3457963 C14.4064973,23.4547003 14.1214145,21.6918575 14.0775378,20.0562132 L14.0715536,19.6132812 C14.0715536,18.2102051 14.2491695,16.8554487 14.6048367,15.5513357 C14.8027458,14.8256689 15.0634135,14.1030254 15.3864221,13.3835274 L15.5532724,13.0245312 L15.3949674,13.0018118 L14.9906201,12.9274432 C14.3235064,12.7926011 13.6211113,12.5853945 12.8825589,12.3066955 L11.9735011,11.9636548 L12.2902431,11.0451031 L12.4897339,10.4668227 C12.6704755,9.96332848 12.9363007,9.2047539 13.2867238,8.19242069 L13.6047944,7.27355004 Z" id="Path"></path>
                <path d="M4.5246786,24.140625 C4.98302215,24.140625 5.42457369,24.2289353 5.84138502,24.4049223 C6.2518599,24.5782339 6.61406474,24.8197038 6.92123851,25.1268776 C7.22841228,25.4340514 7.46988217,25.7962562 7.64319379,26.2067311 C7.8191808,26.6235424 7.9074911,27.065094 7.9074911,27.5234375 C7.9074911,27.9722335 7.81777958,28.4066262 7.64000658,28.818311 C7.46836904,29.2157874 7.23127415,29.5714298 6.93171242,29.8800691 C6.62699233,30.1940232 6.26713016,30.4431585 5.85855145,30.624749 C5.43721683,30.8120089 4.9895715,30.90625 4.5246786,30.90625 C4.07795509,30.90625 3.64301671,30.8173916 3.22750344,30.6419527 C2.82117065,30.47039 2.45956168,30.2323689 2.14851573,29.9304713 C1.83456169,29.6257512 1.58542635,29.2658891 1.40383581,28.8573103 C1.21657598,28.4359757 1.12233485,27.9883304 1.12233485,27.5234375 C1.12233485,27.0585446 1.21657598,26.6108993 1.40383581,26.1895647 C1.58322462,25.7859398 1.82526112,25.4297352 2.1281187,25.1268776 C2.43529247,24.8197038 2.79749731,24.5782339 3.20797219,24.4049223 C3.62478352,24.2289353 4.06633506,24.140625 4.5246786,24.140625 Z" id="Path"></path>
                <path d="M4.1731161,0 C4.78454484,0 5.33551568,0.132992961 5.80979963,0.409658599 C6.25972089,0.672112667 6.62981051,1.02796807 6.91056956,1.46782392 C7.17211582,1.87757972 7.35884315,2.34864185 7.47423487,2.87614687 C7.58111775,3.36475432 7.6340536,3.87898833 7.63294458,4.46542392 L6.83214572,21.3208927 L6.79808678,22.0377919 L6.10799348,22.2349614 L3.78377473,22.8990239 L2.57256092,23.245085 L2.51027673,21.9869444 L1.73877235,6.409 L0.246022349,3.33093694 L0,2.82370568 L0.306619368,2.3506358 C0.845343864,1.51946086 1.44031175,0.912432816 2.10830435,0.544180486 C2.76177176,0.183935632 3.45473855,0 4.1731161,0 Z" id="Path"></path>
            </g>
        </g>
    </g>
</svg>