<svg width="203" height="33" viewBox="0 0 203 33" fill="none" xmlns="http://www.w3.org/2000/svg">
<path d="M195.046 7.47852L195.991 7.72825L201.753 9.25169L202.433 9.43165L202.493 10.1331C202.533 10.5982 202.566 11.0634 202.593 11.5286C202.62 12.0033 202.634 12.4781 202.634 12.9528L202.627 13.0711C202.492 14.2041 202.293 15.3142 202.029 16.4012C201.764 17.4977 201.42 18.5642 200.997 19.6001C200.571 20.6441 200.053 21.6501 199.442 22.6175C198.827 23.5919 198.106 24.5131 197.279 25.3816C196.409 26.2931 195.43 27.117 194.343 27.8531C193.272 28.5782 192.103 29.244 190.829 29.8538C189.915 30.2837 188.959 30.6795 187.961 31.0414C186.964 31.4027 185.899 31.7366 184.766 32.0431L183.842 32.2931L183.552 31.381L182.595 28.3732L182.285 27.3998L183.265 27.1109C184.267 26.8153 185.299 26.4873 186.361 26.127C186.986 25.915 187.617 25.6777 188.254 25.4152L188.68 25.235L187.972 23.3895L186.938 20.6586C186.255 18.8447 185.563 17.0276 184.862 15.2098C184.689 14.7649 184.54 14.4146 184.417 14.1632C184.329 13.9827 184.214 13.8227 184.092 13.6994C183.93 13.5471 183.7 13.3905 183.401 13.2356C183.036 13.047 182.526 12.7981 181.872 12.4905L180.945 12.0544L181.403 11.1384C181.641 10.6631 181.885 10.1879 182.136 9.71265C182.387 9.23755 182.644 8.7625 182.908 8.28751L183.336 7.51756L184.154 7.84468C184.885 8.13715 185.512 8.40416 186.037 8.64645C186.613 8.9121 187.115 9.21226 187.508 9.52192C187.963 9.84718 188.349 10.2334 188.662 10.6781C188.958 11.0977 189.227 11.6131 189.481 12.2423C189.579 12.4962 189.579 12.4962 189.676 12.7501C189.709 12.8351 189.731 12.8917 189.749 12.9388L189.8 13.0705C189.818 13.1174 189.839 13.1736 189.872 13.2579C190.003 13.5992 190.147 13.9794 190.304 14.3986C190.462 14.8193 190.639 15.3014 190.836 15.8453C191.031 16.3863 191.263 17.028 191.53 17.7707C191.797 18.5147 192.104 19.3758 192.45 20.3541C192.665 20.9632 192.904 21.6359 193.168 22.3723L193.181 22.409L193.366 22.228C193.553 22.0363 193.732 21.8382 193.901 21.6338L194.148 21.3224C194.721 20.5689 195.213 19.7382 195.621 18.8392C196.027 17.9166 196.36 16.9266 196.62 15.8686C196.795 15.1555 196.942 14.4028 197.062 13.6108L197.114 13.24L194.652 12.5701L193.695 12.3097L193.948 11.3507C194.08 10.8486 194.215 10.3563 194.354 9.87365C194.491 9.39785 194.631 8.91229 194.775 8.41697L195.046 7.47852Z" fill="white"/>
<path d="M164.401 7.27734L165.329 7.56444C165.85 7.72586 166.305 7.84885 166.692 7.93345C167.076 8.01751 167.45 8.08029 167.813 8.12195C168.182 8.16424 168.57 8.19157 168.979 8.20377C169.404 8.21647 169.906 8.22286 170.482 8.22286H171.654C172.534 8.22286 173.403 8.33466 174.26 8.55789C175.178 8.79698 176.01 9.22666 176.748 9.84135C177.492 10.4618 178.098 11.2846 178.568 12.2986C179.038 13.3133 179.301 14.57 179.372 16.0639C179.411 16.8048 179.438 17.5426 179.451 18.2771C179.464 19.0001 179.477 19.7459 179.49 20.5145C179.503 21.2885 179.51 22.1014 179.51 22.9533V25.6486C179.51 25.9774 179.503 26.2775 179.489 26.5495C179.474 26.8324 179.446 27.1304 179.403 27.4439C179.361 27.7544 179.301 28.0927 179.225 28.4593C179.152 28.8144 179.055 29.2431 178.936 29.7463L178.754 30.5158H162.061V25.5471L174.188 25.5467L174.183 24.6048C174.179 23.9485 174.173 23.2833 174.165 22.6093L174.151 21.5916C174.125 19.8871 174.079 18.199 174.014 16.5202C173.99 15.7589 173.922 15.1363 173.814 14.6583C173.724 14.2626 173.588 13.9717 173.417 13.7726C173.264 13.5955 173.039 13.4599 172.717 13.368C172.317 13.2534 171.757 13.1916 171.049 13.1916L169.242 13.1908C168.795 13.1887 168.385 13.1823 168.012 13.1717C167.526 13.1578 167.055 13.1229 166.601 13.0669C166.134 13.0095 165.665 12.92 165.194 12.7987C164.725 12.6779 164.22 12.5131 163.678 12.3046L162.764 11.953L163.097 11.0316C163.264 10.5668 163.429 10.1019 163.59 9.63703C163.753 9.16974 163.918 8.68941 164.087 8.19604L164.401 7.27734Z" fill="white"/>
<path d="M139.18 7.5127L139.589 8.28693C139.855 8.79242 140.078 9.28379 140.256 9.76152C140.438 10.2475 140.585 10.7691 140.699 11.3262C140.811 11.8697 140.9 12.4825 140.969 13.1659C141.035 13.8268 141.101 14.6104 141.166 15.5147L141.48 19.6957L143.513 15.164C143.828 14.4549 144.086 13.8558 144.286 13.3678L144.368 13.1655C144.566 12.6739 144.711 12.2373 144.802 11.8589C144.875 11.5602 144.911 11.2351 144.911 10.8826C144.911 10.528 144.876 10.0757 144.803 9.53038L144.679 8.60143L145.598 8.41764L148.723 7.79263L149.622 7.61277L149.879 8.49322C150.087 9.2078 150.193 9.92042 150.193 10.6287C150.193 11.0571 150.159 11.4884 150.093 11.9221C150.029 12.3425 149.94 12.7656 149.823 13.203C149.631 13.8899 149.398 14.5727 149.124 15.2513C148.858 15.9083 148.573 16.5747 148.266 17.2551L146.098 22.0012L145.689 22.8976L144.786 22.5013L141.896 21.2318L141.586 21.0947L141.921 25.5597L142.337 25.5662C144.427 25.5662 146.233 25.25 147.759 24.6251C149.275 24.0043 150.523 23.141 151.513 22.0327C152.512 20.9154 153.259 19.5838 153.758 18.0286C154.265 16.4445 154.521 14.695 154.521 12.7771C154.521 12.2409 154.502 11.7113 154.465 11.1882C154.427 10.6562 154.376 10.1176 154.312 9.57231L154.212 8.70951L155.052 8.48944C155.616 8.34188 156.173 8.21098 156.724 8.09677C157.276 7.98238 157.86 7.87835 158.476 7.7846L159.432 7.63903L159.609 8.59031C159.719 9.18251 159.802 9.79405 159.857 10.4249C159.911 11.0532 159.939 11.7071 159.939 12.3865C159.939 15.3484 159.53 17.9689 158.707 20.246C157.876 22.5445 156.67 24.4762 155.089 26.0296C153.509 27.5812 151.59 28.7463 149.343 29.523C147.124 30.2902 144.638 30.6717 141.888 30.6717C141.233 30.6717 140.569 30.655 139.895 30.6216C139.21 30.5877 138.509 30.5233 137.792 30.4287L136.99 30.3227L136.926 29.5161L136.087 18.8962C135.982 17.65 135.906 16.6021 135.86 15.7512C135.815 14.9295 135.758 14.2093 135.689 13.5918C135.622 12.999 135.527 12.4627 135.402 11.9832C135.279 11.5088 135.098 10.9945 134.857 10.4415L134.5 9.6193L135.278 9.1745C135.771 8.89318 136.287 8.64042 136.826 8.41619C137.34 8.20267 137.851 8.00238 138.359 7.81534L139.18 7.5127Z" fill="white"/>
<path d="M131.346 8.22266L131.345 15.8486C131.344 16.4301 131.337 16.9257 131.326 17.3364C131.312 17.8281 131.285 18.2815 131.243 18.6972C131.201 19.113 131.146 19.516 131.076 19.9063C131.008 20.2897 130.919 20.7109 130.811 21.1704L130.601 22.0651L129.692 21.9306L126.391 21.4424L125.383 21.2933L125.551 20.2887C125.615 19.9001 125.674 19.5442 125.725 19.2209C125.775 18.913 125.818 18.585 125.855 18.2372C125.892 17.8951 125.92 17.5059 125.938 17.0705C125.957 16.6304 125.967 16.0973 125.967 15.4727L125.966 13.1907L121.494 13.1914V8.22266H131.346Z" fill="white"/>
<path d="M117.85 8.22266V30.5156H112.471L112.47 13.1907L109.053 13.1914V8.22266H117.85Z" fill="white"/>
<path d="M77.7607 7.27734L78.6883 7.56444C79.2098 7.72586 79.6648 7.84885 80.0516 7.93345C80.4358 8.01751 80.8095 8.08029 81.1726 8.12195C81.5411 8.16424 81.9298 8.19157 82.3384 8.20377C82.7639 8.21647 83.2652 8.22286 83.8418 8.22286H84.4082C85.3037 8.22286 86.186 8.32247 87.0538 8.52163C87.9938 8.73737 88.8463 9.14812 89.5992 9.7474C90.3568 10.3471 90.9611 11.1606 91.4146 12.1736C91.8694 13.1892 92.0879 14.4637 92.0879 16.0002L92.0875 25.5467L95.6816 25.5471V30.5158H75.1855V25.5471L86.7085 25.5467L86.709 16.4885C86.709 15.852 86.6702 15.3107 86.5953 14.8679L86.5549 14.6546C86.4714 14.2606 86.339 13.9746 86.1681 13.781C86.0088 13.6004 85.7759 13.4621 85.4453 13.3689C85.0359 13.2534 84.4795 13.1916 83.7832 13.1916L82.6012 13.1908C82.1542 13.1887 81.7445 13.1823 81.3718 13.1717C80.8853 13.1578 80.4147 13.1229 79.9599 13.0669C79.4934 13.0095 79.0244 12.92 78.5533 12.7987C78.0844 12.6779 77.5795 12.5131 77.0375 12.3046L76.1232 11.953L76.4559 11.0316C76.6238 10.5668 76.7884 10.1019 76.9499 9.63703C77.1121 9.16974 77.2776 8.68941 77.4464 8.19604L77.7607 7.27734Z" fill="white"/>
<path d="M57.8995 7.37402L58.1891 8.24268C58.2439 8.40715 58.2954 8.5685 58.3436 8.72674C58.3865 8.86798 58.4327 9.01262 58.4878 9.17861C58.6111 9.57302 58.7499 9.96782 58.9043 10.363C59.0526 10.7428 59.2486 11.165 59.4925 11.6283C59.7361 12.0912 60.0478 12.6097 60.4273 13.1821C60.8075 13.7555 61.2891 14.4102 61.8835 15.1599C62.0773 15.4143 62.2669 15.646 62.4519 15.8549C62.6551 16.0844 62.8941 16.356 63.1688 16.6699C63.4332 16.9722 63.7736 17.3444 64.189 17.7853C64.4672 18.0807 64.778 18.4347 65.1215 18.8472L65.2043 18.9469L65.2882 18.8602L65.4413 18.6797C65.6965 18.3579 65.9156 18.0112 66.0992 17.6385C66.2924 17.2462 66.4633 16.8219 66.6115 16.3653C66.7715 15.8728 66.9349 15.3441 67.0983 14.7914C67.2401 14.2884 67.3788 13.7822 67.5142 13.2727L67.6443 12.7769L65.8411 12.4316L64.858 12.2431L65.0475 11.2602L65.5749 8.5258L65.761 7.5607L66.7292 7.73013L72.1979 8.68716L72.9935 8.82639L73.0248 9.63346L73.1225 12.153L73.1272 12.2756L73.1022 12.3957C72.9671 13.0441 72.7924 13.7496 72.5782 14.5128C72.3694 15.2564 72.1737 15.948 71.991 16.5875C71.7493 17.4336 71.5095 18.1697 71.2707 18.7973C71.023 19.4485 70.7411 20.0408 70.4241 20.5739C70.0991 21.1206 69.7117 21.6298 69.2631 22.1004C69.0446 22.3297 68.8024 22.5605 68.5365 22.7932L68.4903 22.8319L72.4943 27.5399L73.1295 28.2867L72.3954 28.9366L70.0126 31.046L69.2554 31.7163L68.5936 30.9516L59.0833 19.9629L59.0746 19.9877L58.9918 20.2437C58.8195 20.8378 58.6972 21.4674 58.6252 22.1332C58.551 22.8196 58.5138 23.5324 58.5138 24.2718C58.5138 25.0523 58.5073 25.823 58.4938 26.598C58.4811 27.0038 58.4748 27.4459 58.4748 27.9241C58.4748 28.4193 58.4682 29.0146 58.4551 29.7106L58.4365 30.6917H53.0763V29.6917C53.0763 29.3222 53.0796 28.901 53.0862 28.4278C53.0927 27.9597 53.0992 27.4558 53.1057 26.916C53.1123 26.372 53.1221 25.8118 53.1352 25.2354C53.1448 24.8121 53.1448 24.8121 53.1544 24.3889L53.1547 24.376C53.1645 23.9463 53.1645 23.9463 53.1743 23.5127C53.2014 22.4963 53.2765 21.5859 53.4005 20.7799C53.5268 19.9584 53.7109 19.2045 53.954 18.518C54.1991 17.826 54.5069 17.1814 54.8776 16.5855C55.0944 16.2369 55.3346 15.892 55.598 15.5507L55.6563 15.4749L55.6432 15.4544C55.4316 15.1387 55.2371 14.8372 55.0596 14.5498L54.8878 14.2672C54.5489 13.7 54.2729 13.1759 54.0653 12.7051C53.8387 12.2095 53.6473 11.706 53.4911 11.1949C53.3437 10.7126 53.216 10.2624 53.1081 9.84395L52.8965 9.02413L53.6702 8.68026C54.1726 8.45697 54.7138 8.2523 55.2938 8.06587C55.865 7.88225 56.4367 7.72231 57.0088 7.58611L57.8995 7.37402Z" fill="white"/>
<path d="M49.1191 21.2891V30.5156H43.7402V21.2891H49.1191Z" fill="white"/>
<path d="M49.5488 8.20312L49.5484 13.251C49.5468 13.8324 49.5403 14.3281 49.5289 14.7387C49.5153 15.2305 49.4878 15.6839 49.4462 16.0995C49.4046 16.5153 49.349 16.9184 49.2794 17.3086C49.2109 17.692 49.1226 18.1132 49.0144 18.5728L48.8039 19.4675L47.8947 19.333L44.5939 18.8447L43.5864 18.6957L43.7538 17.6911C43.8186 17.3025 43.8769 16.9465 43.9286 16.6233C43.9778 16.3153 44.0212 15.9874 44.0584 15.6396C44.0951 15.2974 44.1229 14.9083 44.1415 14.4728C44.1573 14.106 44.1665 13.6748 44.1691 13.1797L39.6973 13.1719V8.20312H49.5488Z" fill="white"/>
<path d="M13.6055 7.27344L14.5329 7.56564C15.4257 7.84694 16.2138 8.02507 16.8936 8.10192C17.6001 8.18178 18.5313 8.22254 19.6816 8.22254H29.4277C31.5895 8.22254 33.3358 8.72041 34.637 9.74607C36.3232 11.0765 37.1465 13.1914 37.1465 15.9999V30.5155H24.541V25.5468L31.767 25.5464L31.7676 16.4882C31.7676 15.5555 31.6874 14.8414 31.5419 14.3612L31.4963 14.2241C31.3649 13.8646 31.1585 13.6359 30.8419 13.4886C30.4357 13.2997 29.7635 13.1913 28.8418 13.1913L21.013 13.1904L20.9378 13.3105C19.9908 14.8676 19.5098 16.8645 19.5098 19.3202C19.5098 21.3697 19.7881 23.2809 20.3443 25.0606L20.9888 27.1505L21.0453 27.3338L21.03 27.5249L20.9912 28.0102C20.9369 28.7158 20.8752 29.2717 20.8038 29.6854L20.6607 30.5155H11.084V29.5155V25.6054L15.004 25.6044L14.9309 25.3457C14.4072 23.4546 14.1221 21.6917 14.0782 20.0561L14.0723 19.6132C14.0723 18.2101 14.2499 16.8553 14.6055 15.5512C14.8035 14.8256 15.0641 14.1029 15.3871 13.3834L15.554 13.0244L15.3957 13.0017L14.9913 12.9273C14.3242 12.7925 13.6218 12.5853 12.8833 12.3066L11.9742 11.9635L12.291 11.045L12.4904 10.4667C12.6712 9.96322 12.937 9.20464 13.2874 8.19231L13.6055 7.27344Z" fill="white"/>
<path d="M4.52539 24.1406C4.98373 24.1406 5.42529 24.2289 5.8421 24.4049C6.25257 24.5782 6.61478 24.8197 6.92195 25.1269C7.22912 25.4341 7.47059 25.7963 7.64391 26.2067C7.81989 26.6235 7.9082 27.0651 7.9082 27.5234C7.9082 27.9722 7.81849 28.4066 7.64072 28.8183C7.46908 29.2158 7.23199 29.5714 6.93242 29.8801C6.6277 30.194 6.26784 30.4432 5.85926 30.6247C5.43793 30.812 4.99028 30.9062 4.52539 30.9062C4.07867 30.9062 3.64373 30.8174 3.22822 30.642C2.82188 30.4704 2.46027 30.2324 2.14923 29.9305C1.83527 29.6258 1.58614 29.2659 1.40455 28.8573C1.21729 28.436 1.12305 27.9883 1.12305 27.5234C1.12305 27.0585 1.21729 26.6109 1.40455 26.1896C1.58394 25.7859 1.82597 25.4297 2.12883 25.1269C2.436 24.8197 2.79821 24.5782 3.20868 24.4049C3.6255 24.2289 4.06705 24.1406 4.52539 24.1406Z" fill="white"/>
<path d="M4.17312 0C4.78454 0 5.33552 0.132993 5.8098 0.409659C6.25972 0.672113 6.62981 1.02797 6.91057 1.46782C7.17212 1.87758 7.35884 2.34864 7.47424 2.87615C7.58112 3.36475 7.63405 3.87899 7.63294 4.46542L6.83215 21.3209L6.79809 22.0378L6.10799 22.235L3.78377 22.899L2.57256 23.2451L2.51028 21.9869L1.73877 6.409L0.246022 3.33094L0 2.82371L0.306619 2.35064C0.845344 1.51946 1.44031 0.912433 2.1083 0.544181C2.76177 0.183936 3.45474 0 4.17312 0Z" fill="white"/>
</svg>
