<svg width="16" height="16" viewBox="0 0 16 16" fill="none" xmlns="http://www.w3.org/2000/svg">
<path d="M6.95943 6.21498V8.61911C6.66956 8.53042 6.36371 8.50921 6.06465 8.55706C5.76559 8.60492 5.481 8.7206 5.23207 8.89551C4.98314 9.07042 4.77627 9.30005 4.62685 9.56731C4.47743 9.83458 4.38931 10.1326 4.36905 10.4392C4.36905 11.4054 4.8923 12.5657 6.36452 12.5657C6.62941 12.5697 6.89236 12.5193 7.13755 12.4175C7.38273 12.3157 7.6051 12.1646 7.79127 11.9733C7.97745 11.782 8.12358 11.5544 8.22087 11.3043C8.31817 11.0542 8.36463 10.7868 8.35746 10.518V1H10.7015C11.0996 3.51689 12.3395 4.10136 14 4.37078V6.78093C14 6.78093 12.0295 6.63934 10.7676 5.67269V10.4379C10.7676 12.4155 9.28353 15 6.38403 15C3.48452 15 2 12.5055 2 10.4155C2.01867 9.79634 2.16644 9.18819 2.43356 8.63118C2.70068 8.07417 3.08108 7.58095 3.54969 7.18405C4.01831 6.78714 4.56448 6.49555 5.15222 6.32852C5.73995 6.16148 6.35589 6.12278 6.95943 6.21498Z" stroke="#010C19" stroke-width="1.1" stroke-linejoin="round"/>
</svg>
